<svg width="2689" height="2093" viewBox="0 0 2689 2093" fill="none" xmlns="http://www.w3.org/2000/svg">
<rect width="2689" height="2093" rx="121" fill="white"/>
<path d="M752.1 1156.4C725.5 1156.4 704.2 1151.4 688.2 1141.4C672.2 1131.2 664.2 1115.7 664.2 1094.9C664.2 1083.9 666.1 1075.5 669.9 1069.7C673.7 1063.9 679.3 1061 686.7 1061C692.1 1061 696.5 1062.4 699.9 1065.2C703.3 1068 705 1071.6 705 1076C705 1080 704.7 1083.5 704.1 1086.5C704.1 1087.3 703.9 1088.7 703.5 1090.7C703.3 1092.7 703.2 1094.8 703.2 1097C703.2 1106 707.7 1112.7 716.7 1117.1C725.9 1121.5 738.7 1123.7 755.1 1123.7C772.1 1123.7 785.4 1120.7 795 1114.7C804.6 1108.5 809.4 1099.9 809.4 1088.9C809.4 1082.1 807.2 1076.3 802.8 1071.5C798.4 1066.5 792.9 1062.4 786.3 1059.2C779.7 1055.8 770.4 1051.7 758.4 1046.9C743 1040.9 730.4 1035.2 720.6 1029.8C711 1024.4 702.7 1017.1 695.7 1007.9C688.9 998.5 685.5 986.9 685.5 973.1C685.5 958.7 689.3 945.9 696.9 934.7C704.7 923.5 715.8 914.8 730.2 908.6C744.8 902.4 761.9 899.3 781.5 899.3C796.1 899.3 809.5 901.5 821.7 905.9C833.9 910.1 843.6 916.6 850.8 925.4C858.2 934.2 861.9 945 861.9 957.8C861.9 970.4 860 979.9 856.2 986.3C852.4 992.7 846.8 995.9 839.4 995.9C834.2 995.9 829.8 994.3 826.2 991.1C822.8 987.9 821.1 984.1 821.1 979.7C821.1 975.9 821.4 972.4 822 969.2C822.6 963.2 822.9 959.4 822.9 957.8C822.9 949.4 818.8 943 810.6 938.6C802.4 934.2 792.2 932 780 932C762.8 932 749.6 935.2 740.4 941.6C731.4 947.8 726.9 956.6 726.9 968C726.9 975.6 729.2 982.1 733.8 987.5C738.6 992.9 744.5 997.4 751.5 1001C758.5 1004.6 768.3 1008.9 780.9 1013.9C796.1 1020.1 808.3 1025.7 817.5 1030.7C826.7 1035.7 834.5 1042.5 840.9 1051.1C847.5 1059.7 850.8 1070.3 850.8 1082.9C850.8 1106.5 841.8 1124.7 823.8 1137.5C806 1150.1 782.1 1156.4 752.1 1156.4ZM1046.88 1087.1C1049.48 1087.1 1051.48 1088.3 1052.88 1090.7C1054.48 1093.1 1055.28 1096.4 1055.28 1100.6C1055.28 1108.6 1053.38 1114.8 1049.58 1119.2C1040.58 1130.2 1031.48 1139 1022.28 1145.6C1013.08 1152.2 1002.18 1155.5 989.578 1155.5C974.178 1155.5 961.778 1151.1 952.378 1142.3C942.978 1133.5 938.278 1121.8 938.278 1107.2C938.278 1099.4 942.278 1093.8 950.278 1090.4C959.078 1086.6 965.378 1082.6 969.178 1078.4C972.978 1074 974.878 1068.7 974.878 1062.5C974.878 1058.9 974.078 1056.2 972.478 1054.4C971.078 1052.6 969.278 1051.7 967.078 1051.7C961.678 1051.7 955.678 1055.6 949.078 1063.4C942.678 1071.2 936.678 1081.3 931.078 1093.7C925.478 1105.9 921.078 1118.5 917.878 1131.5C915.678 1140.9 913.078 1147.3 910.078 1150.7C907.278 1153.9 902.778 1155.5 896.578 1155.5C890.378 1155.5 885.778 1153.3 882.778 1148.9C879.978 1144.3 878.078 1137.3 877.078 1127.9C876.078 1118.5 875.578 1104.7 875.578 1086.5C875.578 1055.7 878.678 1023.6 884.878 990.2C891.278 956.8 900.578 928.8 912.778 906.2C925.178 883.4 939.978 872 957.178 872C966.378 872 973.778 876 979.378 884C985.178 891.8 988.078 902 988.078 914.6C988.078 934.8 982.178 955.8 970.378 977.6C958.578 999.2 939.378 1024.5 912.778 1053.5C912.178 1063.9 911.878 1074.6 911.878 1085.6C921.478 1060.6 932.478 1042.5 944.878 1031.3C957.278 1019.9 968.878 1014.2 979.678 1014.2C989.678 1014.2 997.678 1017.6 1003.68 1024.4C1009.88 1031.2 1012.98 1039.6 1012.98 1049.6C1012.98 1060.6 1010.18 1070.7 1004.58 1079.9C998.978 1089.1 989.378 1097.3 975.778 1104.5C976.578 1109.9 978.978 1114.3 982.978 1117.7C987.178 1120.9 992.178 1122.5 997.978 1122.5C1004.18 1122.5 1010.18 1120.1 1015.98 1115.3C1021.78 1110.5 1029.38 1102.5 1038.78 1091.3C1041.18 1088.5 1043.88 1087.1 1046.88 1087.1ZM950.878 901.7C947.278 901.7 943.278 906.9 938.878 917.3C934.478 927.5 930.178 941.4 925.978 959C921.978 976.4 918.678 995.4 916.078 1016C928.478 1001.4 938.678 985.5 946.678 968.3C954.878 951.1 958.978 935.5 958.978 921.5C958.978 915.1 958.278 910.2 956.878 906.8C955.478 903.4 953.478 901.7 950.878 901.7ZM1070.4 994.4C1062 994.4 1055.7 992.5 1051.5 988.7C1047.3 984.7 1045.2 979.2 1045.2 972.2C1045.2 965.2 1047.9 959.4 1053.3 954.8C1058.9 950 1065.8 947.6 1074 947.6C1081.4 947.6 1087.4 949.4 1092 953C1096.6 956.6 1098.9 961.7 1098.9 968.3C1098.9 976.3 1096.3 982.7 1091.1 987.5C1085.9 992.1 1079 994.4 1070.4 994.4ZM1068 1155.5C1055 1155.5 1045.5 1150.9 1039.5 1141.7C1033.7 1132.5 1030.8 1120.3 1030.8 1105.1C1030.8 1096.1 1031.9 1084.6 1034.1 1070.6C1036.5 1056.4 1039.5 1043.2 1043.1 1031C1044.9 1024.6 1047.3 1020.2 1050.3 1017.8C1053.3 1015.4 1058.1 1014.2 1064.7 1014.2C1074.9 1014.2 1080 1017.6 1080 1024.4C1080 1029.4 1078.1 1041 1074.3 1059.2C1069.5 1081.2 1067.1 1096.1 1067.1 1103.9C1067.1 1109.9 1067.9 1114.5 1069.5 1117.7C1071.1 1120.9 1073.8 1122.5 1077.6 1122.5C1081.2 1122.5 1085.7 1120 1091.1 1115C1096.5 1110 1103.7 1102.1 1112.7 1091.3C1115.1 1088.5 1117.8 1087.1 1120.8 1087.1C1123.4 1087.1 1125.4 1088.3 1126.8 1090.7C1128.4 1093.1 1129.2 1096.4 1129.2 1100.6C1129.2 1108.6 1127.3 1114.8 1123.5 1119.2C1103.7 1143.4 1085.2 1155.5 1068 1155.5ZM1218.62 1087.1C1221.22 1087.1 1223.22 1088.3 1224.62 1090.7C1226.22 1093.1 1227.02 1096.4 1227.02 1100.6C1227.02 1108.6 1225.12 1114.8 1221.32 1119.2C1212.72 1129.8 1203.32 1138.5 1193.12 1145.3C1183.12 1152.1 1171.72 1155.5 1158.92 1155.5C1141.32 1155.5 1128.22 1147.5 1119.62 1131.5C1111.22 1115.5 1107.02 1094.8 1107.02 1069.4C1107.02 1045 1110.12 1017.2 1116.32 986C1122.72 954.8 1132.02 928 1144.22 905.6C1156.62 883.2 1171.32 872 1188.32 872C1197.92 872 1205.42 876.5 1210.82 885.5C1216.42 894.3 1219.22 907 1219.22 923.6C1219.22 947.4 1212.62 975 1199.42 1006.4C1186.22 1037.8 1168.32 1068.9 1145.72 1099.7C1147.12 1107.9 1149.42 1113.8 1152.62 1117.4C1155.82 1120.8 1160.02 1122.5 1165.22 1122.5C1173.42 1122.5 1180.62 1120.2 1186.82 1115.6C1193.02 1110.8 1200.92 1102.7 1210.52 1091.3C1212.92 1088.5 1215.62 1087.1 1218.62 1087.1ZM1181.72 901.7C1177.12 901.7 1171.92 910 1166.12 926.6C1160.32 943.2 1155.22 963.8 1150.82 988.4C1146.42 1013 1144.02 1036.6 1143.62 1059.2C1157.82 1035.8 1169.12 1012.4 1177.52 989C1185.92 965.4 1190.12 943.9 1190.12 924.5C1190.12 909.3 1187.32 901.7 1181.72 901.7ZM1316.48 1087.1C1319.08 1087.1 1321.08 1088.3 1322.48 1090.7C1324.08 1093.1 1324.88 1096.4 1324.88 1100.6C1324.88 1108.6 1322.98 1114.8 1319.18 1119.2C1310.58 1129.8 1301.18 1138.5 1290.98 1145.3C1280.98 1152.1 1269.58 1155.5 1256.78 1155.5C1239.18 1155.5 1226.08 1147.5 1217.48 1131.5C1209.08 1115.5 1204.88 1094.8 1204.88 1069.4C1204.88 1045 1207.98 1017.2 1214.18 986C1220.58 954.8 1229.88 928 1242.08 905.6C1254.48 883.2 1269.18 872 1286.18 872C1295.78 872 1303.28 876.5 1308.68 885.5C1314.28 894.3 1317.08 907 1317.08 923.6C1317.08 947.4 1310.48 975 1297.28 1006.4C1284.08 1037.8 1266.18 1068.9 1243.58 1099.7C1244.98 1107.9 1247.28 1113.8 1250.48 1117.4C1253.68 1120.8 1257.88 1122.5 1263.08 1122.5C1271.28 1122.5 1278.48 1120.2 1284.68 1115.6C1290.88 1110.8 1298.78 1102.7 1308.38 1091.3C1310.78 1088.5 1313.48 1087.1 1316.48 1087.1ZM1279.58 901.7C1274.98 901.7 1269.78 910 1263.98 926.6C1258.18 943.2 1253.08 963.8 1248.68 988.4C1244.28 1013 1241.88 1036.6 1241.48 1059.2C1255.68 1035.8 1266.98 1012.4 1275.38 989C1283.78 965.4 1287.98 943.9 1287.98 924.5C1287.98 909.3 1285.18 901.7 1279.58 901.7ZM1334.6 1155.5C1322.2 1155.5 1312.3 1151 1304.9 1142C1297.5 1133 1293.8 1121.2 1293.8 1106.6C1293.8 1090.6 1297.5 1075.5 1304.9 1061.3C1312.3 1046.9 1322.1 1035.4 1334.3 1026.8C1346.7 1018 1359.8 1013.6 1373.6 1013.6C1378 1013.6 1380.9 1014.5 1382.3 1016.3C1383.9 1017.9 1385.2 1020.9 1386.2 1025.3C1390.4 1024.5 1394.8 1024.1 1399.4 1024.1C1409.2 1024.1 1414.1 1027.6 1414.1 1034.6C1414.1 1038.8 1412.6 1048.8 1409.6 1064.6C1405 1087.6 1402.7 1103.6 1402.7 1112.6C1402.7 1115.6 1403.4 1118 1404.8 1119.8C1406.4 1121.6 1408.4 1122.5 1410.8 1122.5C1414.6 1122.5 1419.2 1120.1 1424.6 1115.3C1430 1110.3 1437.3 1102.3 1446.5 1091.3C1448.9 1088.5 1451.6 1087.1 1454.6 1087.1C1457.2 1087.1 1459.2 1088.3 1460.6 1090.7C1462.2 1093.1 1463 1096.4 1463 1100.6C1463 1108.6 1461.1 1114.8 1457.3 1119.2C1449.1 1129.4 1440.4 1138 1431.2 1145C1422 1152 1413.1 1155.5 1404.5 1155.5C1397.9 1155.5 1391.8 1153.3 1386.2 1148.9C1380.8 1144.3 1376.7 1138.1 1373.9 1130.3C1363.5 1147.1 1350.4 1155.5 1334.6 1155.5ZM1345.4 1125.2C1349.8 1125.2 1354 1122.6 1358 1117.4C1362 1112.2 1364.9 1105.3 1366.7 1096.7L1377.8 1041.5C1369.4 1041.7 1361.6 1044.9 1354.4 1051.1C1347.4 1057.1 1341.8 1065.1 1337.6 1075.1C1333.4 1085.1 1331.3 1095.7 1331.3 1106.9C1331.3 1113.1 1332.5 1117.7 1334.9 1120.7C1337.5 1123.7 1341 1125.2 1345.4 1125.2ZM1495.91 1155.5C1476.31 1155.5 1461.01 1150 1450.01 1139C1439.21 1127.8 1433.81 1113.1 1433.81 1094.9C1433.81 1078.7 1437.01 1064.5 1443.41 1052.3C1449.81 1040.1 1458.11 1030.7 1468.31 1024.1C1478.51 1017.5 1489.21 1014.2 1500.41 1014.2C1511.41 1014.2 1519.91 1017.5 1525.91 1024.1C1532.11 1030.5 1535.21 1038.8 1535.21 1049C1535.21 1057.4 1533.31 1064.5 1529.51 1070.3C1525.91 1076.1 1521.11 1079 1515.11 1079C1511.31 1079 1508.21 1078.1 1505.81 1076.3C1503.61 1074.5 1502.51 1072 1502.51 1068.8C1502.51 1067.4 1502.71 1065.8 1503.11 1064C1503.51 1062.2 1503.81 1060.9 1504.01 1060.1C1505.01 1057.1 1505.51 1054.3 1505.51 1051.7C1505.51 1049.1 1504.81 1047.1 1503.41 1045.7C1502.21 1044.3 1500.41 1043.6 1498.01 1043.6C1493.41 1043.6 1489.11 1045.7 1485.11 1049.9C1481.11 1053.9 1477.91 1059.4 1475.51 1066.4C1473.11 1073.4 1471.91 1081.1 1471.91 1089.5C1471.91 1112.7 1482.01 1124.3 1502.21 1124.3C1510.41 1124.3 1519.21 1121.6 1528.61 1116.2C1538.21 1110.6 1547.61 1102.3 1556.81 1091.3C1559.21 1088.5 1561.91 1087.1 1564.91 1087.1C1567.51 1087.1 1569.51 1088.3 1570.91 1090.7C1572.51 1093.1 1573.31 1096.4 1573.31 1100.6C1573.31 1108.2 1571.41 1114.4 1567.61 1119.2C1558.21 1130.8 1546.91 1139.8 1533.71 1146.2C1520.71 1152.4 1508.11 1155.5 1495.91 1155.5ZM1583.03 1155.5C1570.63 1155.5 1560.73 1151 1553.33 1142C1545.93 1133 1542.23 1121.2 1542.23 1106.6C1542.23 1090.6 1545.93 1075.5 1553.33 1061.3C1560.73 1046.9 1570.53 1035.4 1582.73 1026.8C1595.13 1018 1608.23 1013.6 1622.03 1013.6C1626.43 1013.6 1629.33 1014.5 1630.73 1016.3C1632.33 1017.9 1633.63 1020.9 1634.63 1025.3C1638.83 1024.5 1643.23 1024.1 1647.83 1024.1C1657.63 1024.1 1662.53 1027.6 1662.53 1034.6C1662.53 1038.8 1661.03 1048.8 1658.03 1064.6C1653.43 1087.6 1651.13 1103.6 1651.13 1112.6C1651.13 1115.6 1651.83 1118 1653.23 1119.8C1654.83 1121.6 1656.83 1122.5 1659.23 1122.5C1663.03 1122.5 1667.63 1120.1 1673.03 1115.3C1678.43 1110.3 1685.73 1102.3 1694.93 1091.3C1697.33 1088.5 1700.03 1087.1 1703.03 1087.1C1705.63 1087.1 1707.63 1088.3 1709.03 1090.7C1710.63 1093.1 1711.43 1096.4 1711.43 1100.6C1711.43 1108.6 1709.53 1114.8 1705.73 1119.2C1697.53 1129.4 1688.83 1138 1679.63 1145C1670.43 1152 1661.53 1155.5 1652.93 1155.5C1646.33 1155.5 1640.23 1153.3 1634.63 1148.9C1629.23 1144.3 1625.13 1138.1 1622.33 1130.3C1611.93 1147.1 1598.83 1155.5 1583.03 1155.5ZM1593.83 1125.2C1598.23 1125.2 1602.43 1122.6 1606.43 1117.4C1610.43 1112.2 1613.33 1105.3 1615.13 1096.7L1626.23 1041.5C1617.83 1041.7 1610.03 1044.9 1602.83 1051.1C1595.83 1057.1 1590.23 1065.1 1586.03 1075.1C1581.83 1085.1 1579.73 1095.7 1579.73 1106.9C1579.73 1113.1 1580.93 1117.7 1583.33 1120.7C1585.93 1123.7 1589.43 1125.2 1593.83 1125.2ZM1808.25 1055.3C1812.65 1055.3 1816.35 1056.9 1819.35 1060.1C1822.55 1063.1 1824.15 1066.9 1824.15 1071.5C1824.15 1074.1 1823.55 1076.9 1822.35 1079.9C1819.15 1087.3 1814.65 1093.5 1808.85 1098.5C1803.05 1103.5 1796.65 1106 1789.65 1106C1784.05 1106 1779.25 1104 1775.25 1100C1771.45 1096 1769.55 1090.6 1769.55 1083.8C1769.55 1080 1769.75 1075.9 1770.15 1071.5C1770.55 1068.3 1770.75 1066.1 1770.75 1064.9C1770.75 1063.3 1770.35 1062.1 1769.55 1061.3C1768.95 1060.5 1768.15 1060.1 1767.15 1060.1C1764.35 1060.1 1760.55 1063.5 1755.75 1070.3C1750.95 1076.9 1746.15 1085.7 1741.35 1096.7C1736.55 1107.7 1732.65 1119.3 1729.65 1131.5C1727.45 1141.1 1724.95 1147.5 1722.15 1150.7C1719.35 1153.9 1714.75 1155.5 1708.35 1155.5C1700.75 1155.5 1695.35 1151.5 1692.15 1143.5C1689.15 1135.5 1687.65 1122.7 1687.65 1105.1C1687.65 1079.1 1691.35 1054.4 1698.75 1031C1700.55 1025.2 1703.45 1021 1707.45 1018.4C1711.65 1015.6 1717.45 1014.2 1724.85 1014.2C1728.85 1014.2 1731.65 1014.7 1733.25 1015.7C1734.85 1016.7 1735.65 1018.6 1735.65 1021.4C1735.65 1024.6 1734.15 1031.8 1731.15 1043C1729.15 1051 1727.55 1058 1726.35 1064C1725.15 1070 1724.15 1077.4 1723.35 1086.2C1729.95 1069 1737.35 1055 1745.55 1044.2C1753.75 1033.4 1761.75 1025.7 1769.55 1021.1C1777.35 1016.5 1784.45 1014.2 1790.85 1014.2C1796.65 1014.2 1801.05 1015.9 1804.05 1019.3C1807.25 1022.5 1808.85 1027.3 1808.85 1033.7C1808.85 1037.5 1807.75 1044.7 1805.55 1055.3H1808.25ZM1885.09 1042.7C1884.69 1052.7 1884.49 1060.5 1884.49 1066.1C1884.49 1080.5 1885.19 1091.8 1886.59 1100C1888.19 1108 1890.69 1113.8 1894.09 1117.4C1897.69 1120.8 1902.59 1122.5 1908.79 1122.5C1911.99 1122.5 1915.79 1121.5 1920.19 1119.5C1924.59 1117.5 1928.59 1114.9 1932.19 1111.7C1934.39 1109.7 1936.59 1108.7 1938.79 1108.7C1941.19 1108.7 1943.09 1110.1 1944.49 1112.9C1946.09 1115.5 1946.89 1118.7 1946.89 1122.5C1946.89 1126.3 1946.09 1130 1944.49 1133.6C1943.09 1137.2 1940.89 1140.2 1937.89 1142.6C1927.49 1151.2 1915.69 1155.5 1902.49 1155.5C1883.49 1155.5 1869.59 1147.6 1860.79 1131.8C1851.99 1115.8 1847.59 1095 1847.59 1069.4C1847.59 1060.6 1847.89 1051.7 1848.49 1042.7H1836.79C1830.79 1042.7 1826.69 1041.6 1824.49 1039.4C1822.49 1037.2 1821.49 1033.7 1821.49 1028.9C1821.49 1017.7 1825.99 1012.1 1834.99 1012.1H1852.09C1855.49 990.1 1860.69 970 1867.69 951.8C1874.69 933.6 1883.09 919.1 1892.89 908.3C1902.89 897.5 1913.59 892.1 1924.99 892.1C1933.39 892.1 1939.99 895.8 1944.79 903.2C1949.59 910.6 1951.99 919.9 1951.99 931.1C1951.99 962.1 1938.99 989.1 1912.99 1012.1H1946.59C1949.79 1012.1 1952.09 1012.8 1953.49 1014.2C1954.89 1015.6 1955.59 1018.2 1955.59 1022C1955.59 1035.8 1944.29 1042.7 1921.69 1042.7H1885.09ZM1916.89 920.9C1913.89 920.9 1910.49 924.7 1906.69 932.3C1903.09 939.7 1899.59 950.1 1896.19 963.5C1892.99 976.7 1890.29 991.4 1888.09 1007.6C1899.89 997.4 1908.69 986 1914.49 973.4C1920.49 960.6 1923.49 949 1923.49 938.6C1923.49 926.8 1921.29 920.9 1916.89 920.9Z" fill="#00AA3B"/>
<path d="M415.831 1332.26L434.215 1262.54C439.195 1243.54 455.406 1234.02 482.848 1233.97H522.325C524.132 1233.97 525.621 1234.65 526.793 1236.02C528.014 1237.39 528.624 1238.98 528.624 1240.78V1332.26C528.624 1334.17 527.94 1335.78 526.573 1337.1C525.206 1338.37 523.57 1339 521.666 1339H507.896C505.895 1339 504.234 1338.37 502.916 1337.1C501.646 1335.78 501.012 1334.12 501.012 1332.12V1313.66H448.937L444.029 1332.12C443.541 1334.12 442.442 1335.78 440.733 1337.1C439.024 1338.37 437.218 1339 435.313 1339H420.885C418.98 1339 417.613 1338.46 416.783 1337.39C415.953 1336.27 415.538 1335.29 415.538 1334.46C415.587 1333.63 415.685 1332.9 415.831 1332.26ZM454.356 1292.93H501.012V1254.7H480.138C475.45 1254.7 471.349 1256.04 467.833 1258.73C464.366 1261.36 462.022 1264.93 460.802 1269.42L454.356 1292.93ZM548.106 1334.53V1263.27C548.106 1261.95 548.521 1260.88 549.352 1260.04C550.23 1259.17 551.305 1258.73 552.574 1258.73H568.98C570.25 1258.73 571.3 1259.17 572.13 1260.04C573.009 1260.88 573.448 1261.95 573.448 1263.27V1267.88C581.847 1260.8 590.782 1257.26 600.255 1257.26C609.776 1257.26 617.516 1260.17 623.473 1265.98C629.43 1271.74 632.408 1280.58 632.408 1292.49V1334.53C632.408 1335.8 631.969 1336.88 631.09 1337.75C630.26 1338.58 629.186 1339 627.867 1339H611.534C610.265 1339 609.19 1338.58 608.312 1337.75C607.481 1336.88 607.066 1335.8 607.066 1334.53V1292.49C607.066 1280.82 602.403 1274.99 593.077 1274.99C586.974 1274.99 580.431 1278.48 573.448 1285.46V1334.53C573.448 1335.8 573.009 1336.88 572.13 1337.75C571.3 1338.58 570.25 1339 568.98 1339H552.574C551.305 1339 550.23 1338.58 549.352 1337.75C548.521 1336.88 548.106 1335.8 548.106 1334.53ZM709.825 1329.77C702.306 1322.64 698.546 1312.39 698.546 1299.01C698.546 1285.58 702.33 1275.28 709.898 1268.1C717.467 1260.88 727.965 1257.26 741.393 1257.26C754.82 1257.26 765.294 1260.78 772.813 1267.81C780.333 1274.79 784.093 1284.83 784.093 1297.91V1302.09C784.093 1303.4 783.653 1304.5 782.774 1305.38C781.944 1306.21 780.87 1306.63 779.552 1306.63H724.4C724.889 1312.63 726.598 1317 729.527 1319.74C732.506 1322.47 737.242 1323.84 743.736 1323.84C750.23 1323.84 754.674 1322.37 757.066 1319.44C759.459 1316.51 762.413 1315.03 765.929 1314.98H776.842C778.16 1314.98 779.234 1315.42 780.064 1316.29C780.943 1317.12 781.383 1318.2 781.383 1319.52C781.383 1333.53 768.028 1340.51 741.319 1340.46C727.843 1340.46 717.345 1336.9 709.825 1329.77ZM724.254 1291.17H758.312C757.823 1279.65 752.159 1273.89 741.319 1273.89C730.528 1273.89 724.84 1279.65 724.254 1291.17ZM853.087 1277.33L841.808 1276.89C835.216 1276.89 828.917 1280.5 822.911 1287.73V1334.53C822.911 1335.85 822.472 1336.92 821.593 1337.75C820.763 1338.58 819.713 1339 818.443 1339H802.037C800.719 1339 799.645 1338.58 798.814 1337.75C797.984 1336.92 797.569 1335.85 797.569 1334.53V1263.27C797.569 1261.95 797.984 1260.88 798.814 1260.04C799.693 1259.17 800.768 1258.73 802.037 1258.73H818.443C819.762 1258.73 820.836 1259.17 821.666 1260.04C822.496 1260.88 822.911 1261.95 822.911 1263.27V1267.88C827.892 1264.27 832.677 1261.61 837.267 1259.9C841.905 1258.14 847.96 1257.26 855.431 1257.26C856.749 1257.26 857.823 1257.7 858.653 1258.58C859.532 1259.41 859.972 1260.46 859.972 1261.73V1272.86C859.972 1274.18 859.532 1275.25 858.653 1276.08C857.823 1276.92 856.749 1277.33 855.431 1277.33H853.087ZM926.036 1277.33L914.757 1276.89C908.165 1276.89 901.866 1280.5 895.86 1287.73V1334.53C895.86 1335.85 895.421 1336.92 894.542 1337.75C893.712 1338.58 892.662 1339 891.393 1339H874.986C873.668 1339 872.594 1338.58 871.764 1337.75C870.934 1336.92 870.519 1335.85 870.519 1334.53V1263.27C870.519 1261.95 870.934 1260.88 871.764 1260.04C872.643 1259.17 873.717 1258.73 874.986 1258.73H891.393C892.711 1258.73 893.785 1259.17 894.615 1260.04C895.445 1260.88 895.86 1261.95 895.86 1263.27V1267.88C900.841 1264.27 905.626 1261.61 910.216 1259.9C914.854 1258.14 920.909 1257.26 928.38 1257.26C929.698 1257.26 930.772 1257.7 931.603 1258.58C932.481 1259.41 932.921 1260.46 932.921 1261.73V1272.86C932.921 1274.18 932.481 1275.25 931.603 1276.08C930.772 1276.92 929.698 1277.33 928.38 1277.33H926.036ZM950.353 1329.92C942.735 1322.89 938.927 1312.54 938.927 1298.86C938.927 1285.14 942.735 1274.79 950.353 1267.81C957.97 1260.78 968.907 1257.26 983.165 1257.26C997.472 1257.26 1008.43 1260.78 1016.05 1267.81C1023.67 1274.79 1027.48 1285.14 1027.48 1298.86C1027.48 1312.54 1023.67 1322.89 1016.05 1329.92C1008.43 1336.95 997.472 1340.46 983.165 1340.46C968.907 1340.46 957.97 1336.95 950.353 1329.92ZM968.883 1279.82C965.855 1283.78 964.342 1290.1 964.342 1298.79C964.342 1307.48 965.855 1313.83 968.883 1317.83C971.91 1321.84 976.671 1323.84 983.165 1323.84C989.708 1323.84 994.493 1321.84 997.521 1317.83C1000.6 1313.83 1002.13 1307.48 1002.13 1298.79C1002.13 1290.1 1000.6 1283.78 997.521 1279.82C994.493 1275.87 989.708 1273.89 983.165 1273.89C976.671 1273.89 971.91 1275.87 968.883 1279.82ZM1096.54 1277.33L1085.26 1276.89C1078.67 1276.89 1072.37 1280.5 1066.37 1287.73V1334.53C1066.37 1335.85 1065.93 1336.92 1065.05 1337.75C1064.22 1338.58 1063.17 1339 1061.9 1339H1045.49C1044.18 1339 1043.1 1338.58 1042.27 1337.75C1041.44 1336.92 1041.03 1335.85 1041.03 1334.53V1263.27C1041.03 1261.95 1041.44 1260.88 1042.27 1260.04C1043.15 1259.17 1044.22 1258.73 1045.49 1258.73H1061.9C1063.22 1258.73 1064.29 1259.17 1065.12 1260.04C1065.95 1260.88 1066.37 1261.95 1066.37 1263.27V1267.88C1071.35 1264.27 1076.13 1261.61 1080.72 1259.9C1085.36 1258.14 1091.42 1257.26 1098.89 1257.26C1100.21 1257.26 1101.28 1257.7 1102.11 1258.58C1102.99 1259.41 1103.43 1260.46 1103.43 1261.73V1272.86C1103.43 1274.18 1102.99 1275.25 1102.11 1276.08C1101.28 1276.92 1100.21 1277.33 1098.89 1277.33H1096.54ZM1166.56 1334.53V1238.51C1166.56 1237.19 1166.98 1236.12 1167.81 1235.29C1168.69 1234.41 1169.76 1233.97 1171.03 1233.97H1187.44C1188.71 1233.97 1189.76 1234.41 1190.59 1235.29C1191.47 1236.12 1191.91 1237.19 1191.91 1238.51V1267.88C1200.3 1260.8 1209.24 1257.26 1218.71 1257.26C1228.23 1257.26 1235.97 1260.17 1241.93 1265.98C1247.89 1271.74 1250.87 1280.58 1250.87 1292.49V1334.53C1250.87 1335.8 1250.43 1336.88 1249.55 1337.75C1248.72 1338.58 1247.64 1339 1246.32 1339H1229.99C1228.72 1339 1227.65 1338.58 1226.77 1337.75C1225.94 1336.88 1225.52 1335.8 1225.52 1334.53V1292.49C1225.52 1280.82 1220.86 1274.99 1211.53 1274.99C1205.43 1274.99 1198.89 1278.48 1191.91 1285.46V1334.53C1191.91 1335.8 1191.47 1336.88 1190.59 1337.75C1189.76 1338.58 1188.71 1339 1187.44 1339H1171.03C1169.76 1339 1168.69 1338.58 1167.81 1337.75C1166.98 1336.88 1166.56 1335.8 1166.56 1334.53ZM1274.08 1333.73C1267.64 1329.23 1264.42 1322.89 1264.42 1314.68C1264.42 1306.48 1267.64 1300.18 1274.08 1295.79C1280.58 1291.39 1288.93 1289.2 1299.13 1289.2H1323.38C1323.38 1283.48 1322.18 1279.5 1319.79 1277.26C1317.39 1275.01 1313.19 1273.89 1307.19 1273.89C1301.23 1273.89 1297.03 1275.38 1294.59 1278.36C1292.2 1281.29 1289.24 1282.75 1285.73 1282.75H1274.82C1273.5 1282.75 1272.4 1282.33 1271.52 1281.5C1270.69 1280.63 1270.27 1279.55 1270.27 1278.28C1270.27 1264.27 1283.58 1257.26 1310.19 1257.26C1321.81 1257.26 1331.14 1259.87 1338.17 1265.1C1345.2 1270.27 1348.72 1278.31 1348.72 1289.2V1334.53C1348.72 1335.85 1348.3 1336.92 1347.47 1337.75C1346.64 1338.58 1345.57 1339 1344.25 1339H1330.11C1328.79 1339 1327.72 1338.58 1326.89 1337.75C1326.06 1336.88 1325.65 1335.8 1325.65 1334.53V1332.26C1317.93 1337.78 1309.02 1340.51 1298.91 1340.46C1288.85 1340.46 1280.58 1338.22 1274.08 1333.73ZM1300.89 1305.82C1297.47 1305.82 1294.76 1306.65 1292.76 1308.31C1290.81 1309.97 1289.83 1312.12 1289.83 1314.76C1289.83 1317.39 1290.86 1319.57 1292.91 1321.28C1294.96 1322.98 1297.86 1323.84 1301.62 1323.84C1309.14 1323.84 1316.39 1321.64 1323.38 1317.25V1305.82H1300.89ZM1362.27 1280.92C1362.27 1265.15 1374.99 1257.26 1400.43 1257.26C1427.18 1257.26 1440.56 1264.27 1440.56 1278.28C1440.56 1279.55 1440.15 1280.63 1439.32 1281.5C1438.49 1282.33 1437.41 1282.75 1436.09 1282.75H1425.18C1421.67 1282.75 1418.71 1281.29 1416.32 1278.36C1413.93 1275.38 1409.21 1273.89 1402.18 1273.89C1392.52 1273.89 1387.68 1276.23 1387.68 1280.92C1387.68 1283.12 1389.56 1284.95 1393.32 1286.41C1397.13 1287.88 1401.74 1289.17 1407.16 1290.29C1412.63 1291.37 1418.08 1292.76 1423.5 1294.47C1428.92 1296.18 1433.51 1298.91 1437.27 1302.67C1441.08 1306.38 1442.98 1311.09 1442.98 1316.81C1442.98 1332.58 1429.55 1340.46 1402.7 1340.46C1375.84 1340.46 1362.41 1333.48 1362.41 1319.52C1362.41 1318.2 1362.83 1317.12 1363.66 1316.29C1364.54 1315.42 1365.64 1314.98 1366.95 1314.98H1377.87C1381.38 1314.98 1384.34 1316.47 1386.73 1319.44C1389.12 1322.37 1393.83 1323.84 1400.87 1323.84C1412.05 1323.84 1417.64 1321.5 1417.64 1316.81C1417.64 1314.61 1415.73 1312.78 1411.92 1311.31C1408.17 1309.85 1403.55 1308.56 1398.08 1307.43C1392.61 1306.26 1387.17 1304.84 1381.75 1303.18C1376.38 1301.48 1371.79 1298.74 1367.98 1294.98C1364.17 1291.22 1362.27 1286.53 1362.27 1280.92ZM1516.08 1329.92C1508.46 1322.89 1504.65 1312.54 1504.65 1298.86C1504.65 1285.14 1508.46 1274.79 1516.08 1267.81C1523.69 1260.78 1534.63 1257.26 1548.89 1257.26C1563.19 1257.26 1574.16 1260.78 1581.77 1267.81C1589.39 1274.79 1593.2 1285.14 1593.2 1298.86C1593.2 1312.54 1589.39 1322.89 1581.77 1329.92C1574.16 1336.95 1563.19 1340.46 1548.89 1340.46C1534.63 1340.46 1523.69 1336.95 1516.08 1329.92ZM1534.61 1279.82C1531.58 1283.78 1530.06 1290.1 1530.06 1298.79C1530.06 1307.48 1531.58 1313.83 1534.61 1317.83C1537.63 1321.84 1542.39 1323.84 1548.89 1323.84C1555.43 1323.84 1560.22 1321.84 1563.24 1317.83C1566.32 1313.83 1567.86 1307.48 1567.86 1298.79C1567.86 1290.1 1566.32 1283.78 1563.24 1279.82C1560.22 1275.87 1555.43 1273.89 1548.89 1273.89C1542.39 1273.89 1537.63 1275.87 1534.61 1279.82ZM1645.57 1340.46C1631.9 1340.46 1621.25 1336.95 1613.63 1329.92C1606.02 1322.89 1602.21 1312.56 1602.21 1298.94C1602.21 1285.26 1605.99 1274.91 1613.56 1267.88C1621.13 1260.8 1631.65 1257.26 1645.13 1257.26C1658.65 1257.26 1669.03 1259.41 1676.26 1263.71C1683.53 1268 1687.17 1274.35 1687.17 1282.75C1687.17 1284.07 1686.73 1285.14 1685.85 1285.97C1685.02 1286.8 1683.95 1287.22 1682.63 1287.22H1671.71C1668.39 1287.22 1665.59 1285.44 1663.29 1281.87C1660.41 1277.28 1655.31 1274.99 1647.98 1274.99C1640.71 1274.99 1635.61 1276.87 1632.68 1280.63C1629.8 1284.34 1628.36 1290.42 1628.36 1298.86C1628.36 1307.31 1629.84 1313.41 1632.82 1317.17C1635.85 1320.93 1641.08 1322.81 1648.5 1322.81C1655.97 1322.81 1661.14 1320.52 1664.02 1315.93C1666.32 1312.32 1669.13 1310.51 1672.45 1310.51H1683.36C1684.68 1310.51 1685.75 1310.95 1686.58 1311.83C1687.46 1312.66 1687.9 1313.71 1687.9 1314.98C1687.9 1323.38 1684.26 1329.72 1676.99 1334.02C1669.76 1338.32 1659.29 1340.46 1645.57 1340.46ZM1738.73 1340.46C1725.06 1340.46 1714.42 1336.95 1706.8 1329.92C1699.18 1322.89 1695.37 1312.56 1695.37 1298.94C1695.37 1285.26 1699.16 1274.91 1706.72 1267.88C1714.29 1260.8 1724.82 1257.26 1738.29 1257.26C1751.82 1257.26 1762.19 1259.41 1769.42 1263.71C1776.7 1268 1780.33 1274.35 1780.33 1282.75C1780.33 1284.07 1779.89 1285.14 1779.01 1285.97C1778.18 1286.8 1777.11 1287.22 1775.79 1287.22H1764.88C1761.56 1287.22 1758.75 1285.44 1756.46 1281.87C1753.58 1277.28 1748.47 1274.99 1741.15 1274.99C1733.87 1274.99 1728.77 1276.87 1725.84 1280.63C1722.96 1284.34 1721.52 1290.42 1721.52 1298.86C1721.52 1307.31 1723.01 1313.41 1725.99 1317.17C1729.01 1320.93 1734.24 1322.81 1741.66 1322.81C1749.13 1322.81 1754.31 1320.52 1757.19 1315.93C1759.48 1312.32 1762.29 1310.51 1765.61 1310.51H1776.52C1777.84 1310.51 1778.92 1310.95 1779.75 1311.83C1780.63 1312.66 1781.07 1313.71 1781.07 1314.98C1781.07 1323.38 1777.43 1329.72 1770.15 1334.02C1762.93 1338.32 1752.45 1340.46 1738.73 1340.46ZM1793.08 1305.24V1263.27C1793.08 1261.95 1793.49 1260.88 1794.32 1260.04C1795.2 1259.17 1796.28 1258.73 1797.54 1258.73H1813.95C1815.22 1258.73 1816.27 1259.17 1817.1 1260.04C1817.98 1260.88 1818.42 1261.95 1818.42 1263.27V1305.24C1818.42 1316.95 1823.06 1322.81 1832.33 1322.81C1838.44 1322.81 1845.01 1319.3 1852.04 1312.27V1263.27C1852.04 1261.95 1852.45 1260.88 1853.28 1260.04C1854.16 1259.17 1855.24 1258.73 1856.5 1258.73H1872.84C1874.16 1258.73 1875.23 1259.17 1876.06 1260.04C1876.94 1260.88 1877.38 1261.95 1877.38 1263.27V1334.53C1877.38 1335.8 1876.94 1336.88 1876.06 1337.75C1875.23 1338.58 1874.16 1339 1872.84 1339H1856.5C1855.24 1339 1854.16 1338.58 1853.28 1337.75C1852.45 1336.88 1852.04 1335.8 1852.04 1334.53V1329.84C1843.64 1336.92 1834.68 1340.46 1825.16 1340.46C1815.68 1340.46 1807.97 1337.58 1802.01 1331.82C1796.06 1326.01 1793.08 1317.15 1793.08 1305.24ZM1950.99 1277.33L1939.71 1276.89C1933.12 1276.89 1926.82 1280.5 1920.81 1287.73V1334.53C1920.81 1335.85 1920.37 1336.92 1919.49 1337.75C1918.66 1338.58 1917.61 1339 1916.34 1339H1899.94C1898.62 1339 1897.54 1338.58 1896.71 1337.75C1895.88 1336.92 1895.47 1335.85 1895.47 1334.53V1263.27C1895.47 1261.95 1895.88 1260.88 1896.71 1260.04C1897.59 1259.17 1898.67 1258.73 1899.94 1258.73H1916.34C1917.66 1258.73 1918.74 1259.17 1919.57 1260.04C1920.4 1260.88 1920.81 1261.95 1920.81 1263.27V1267.88C1925.79 1264.27 1930.58 1261.61 1935.17 1259.9C1939.81 1258.14 1945.86 1257.26 1953.33 1257.26C1954.65 1257.26 1955.72 1257.7 1956.55 1258.58C1957.43 1259.41 1957.87 1260.46 1957.87 1261.73V1272.86C1957.87 1274.18 1957.43 1275.25 1956.55 1276.08C1955.72 1276.92 1954.65 1277.33 1953.33 1277.33H1950.99ZM1974.42 1329.77C1966.91 1322.64 1963.15 1312.39 1963.15 1299.01C1963.15 1285.58 1966.93 1275.28 1974.5 1268.1C1982.07 1260.88 1992.56 1257.26 2005.99 1257.26C2019.42 1257.26 2029.89 1260.78 2037.41 1267.81C2044.93 1274.79 2048.69 1284.83 2048.69 1297.91V1302.09C2048.69 1303.4 2048.25 1304.5 2047.37 1305.38C2046.54 1306.21 2045.47 1306.63 2044.15 1306.63H1989C1989.49 1312.63 1991.2 1317 1994.13 1319.74C1997.11 1322.47 2001.84 1323.84 2008.34 1323.84C2014.83 1323.84 2019.27 1322.37 2021.67 1319.44C2024.06 1316.51 2027.01 1315.03 2030.53 1314.98H2041.44C2042.76 1314.98 2043.83 1315.42 2044.66 1316.29C2045.54 1317.12 2045.98 1318.2 2045.98 1319.52C2045.98 1333.53 2032.63 1340.51 2005.92 1340.46C1992.44 1340.46 1981.94 1336.9 1974.42 1329.77ZM1988.85 1291.17H2022.91C2022.42 1279.65 2016.76 1273.89 2005.92 1273.89C1995.13 1273.89 1989.44 1279.65 1988.85 1291.17ZM2093.52 1340.46C2083.31 1340.46 2074.77 1336.88 2067.88 1329.7C2061.05 1322.52 2057.63 1312.24 2057.63 1298.86C2057.63 1285.44 2061.17 1275.16 2068.25 1268.03C2075.38 1260.85 2084.95 1257.26 2096.96 1257.26C2103.16 1257.26 2110.22 1258.51 2118.13 1261V1238.51C2118.13 1237.19 2118.54 1236.12 2119.37 1235.29C2120.25 1234.41 2121.32 1233.97 2122.59 1233.97H2138.93C2140.25 1233.97 2141.32 1234.41 2142.15 1235.29C2143.03 1236.12 2143.47 1237.19 2143.47 1238.51V1334.53C2143.47 1335.8 2143.03 1336.88 2142.15 1337.75C2141.32 1338.58 2140.25 1339 2138.93 1339H2124.86C2123.55 1339 2122.47 1338.58 2121.64 1337.75C2120.81 1336.88 2120.4 1335.8 2120.4 1334.53V1332.26C2112.68 1337.73 2103.72 1340.46 2093.52 1340.46ZM2102.23 1274.99C2095.49 1274.99 2090.73 1276.89 2087.95 1280.7C2085.17 1284.46 2083.78 1290.51 2083.78 1298.86C2083.78 1307.21 2085.09 1313.29 2087.73 1317.1C2090.37 1320.91 2094.32 1322.81 2099.6 1322.81C2104.92 1322.81 2111.09 1320.62 2118.13 1316.22V1277.92C2111.83 1275.96 2106.53 1274.99 2102.23 1274.99ZM2214.22 1240.93C2214.12 1239.02 2214.76 1237.39 2216.12 1236.02C2217.54 1234.65 2219.2 1233.97 2221.1 1233.97H2236.85C2238.76 1233.97 2240.39 1234.65 2241.76 1236.02C2243.17 1237.39 2243.83 1239.02 2243.74 1240.93L2241.69 1301.06C2241.59 1302.96 2240.88 1304.58 2239.56 1305.89C2238.24 1307.16 2236.66 1307.8 2234.8 1307.8H2223.23C2221.32 1307.8 2219.71 1307.16 2218.39 1305.89C2217.12 1304.58 2216.44 1302.96 2216.34 1301.06L2214.22 1240.93ZM2233.56 1315.27C2240.15 1315.27 2243.44 1318.59 2243.44 1325.23V1329.84C2243.44 1332.92 2242.59 1335.34 2240.88 1337.1C2239.22 1338.85 2236.78 1339.73 2233.56 1339.73H2224.55C2221.32 1339.73 2218.86 1338.85 2217.15 1337.1C2215.49 1335.34 2214.66 1332.92 2214.66 1329.84V1325.23C2214.66 1322.01 2215.51 1319.54 2217.22 1317.83C2218.93 1316.12 2221.37 1315.27 2224.55 1315.27H2233.56Z" fill="#00AA3B"/>
</svg>
