<svg width="195" height="44" viewBox="0 0 195 44" fill="none" xmlns="http://www.w3.org/2000/svg">
<path d="M13.715 43.36C9.725 43.36 6.53 42.61 4.13 41.11C1.73 39.58 0.53 37.255 0.53 34.135C0.53 32.485 0.815 31.225 1.385 30.355C1.955 29.485 2.795 29.05 3.905 29.05C4.715 29.05 5.375 29.26 5.885 29.68C6.395 30.1 6.65 30.64 6.65 31.3C6.65 31.9 6.605 32.425 6.515 32.875C6.515 32.995 6.485 33.205 6.425 33.505C6.395 33.805 6.38 34.12 6.38 34.45C6.38 35.8 7.055 36.805 8.405 37.465C9.785 38.125 11.705 38.455 14.165 38.455C16.715 38.455 18.71 38.005 20.15 37.105C21.59 36.175 22.31 34.885 22.31 33.235C22.31 32.215 21.98 31.345 21.32 30.625C20.66 29.875 19.835 29.26 18.845 28.78C17.855 28.27 16.46 27.655 14.66 26.935C12.35 26.035 10.46 25.18 8.99 24.37C7.55 23.56 6.305 22.465 5.255 21.085C4.235 19.675 3.725 17.935 3.725 15.865C3.725 13.705 4.295 11.785 5.435 10.105C6.605 8.425 8.27 7.12 10.43 6.19C12.62 5.26 15.185 4.795 18.125 4.795C20.315 4.795 22.325 5.125 24.155 5.785C25.985 6.415 27.44 7.39 28.52 8.71C29.63 10.03 30.185 11.65 30.185 13.57C30.185 15.46 29.9 16.885 29.33 17.845C28.76 18.805 27.92 19.285 26.81 19.285C26.03 19.285 25.37 19.045 24.83 18.565C24.32 18.085 24.065 17.515 24.065 16.855C24.065 16.285 24.11 15.76 24.2 15.28C24.29 14.38 24.335 13.81 24.335 13.57C24.335 12.31 23.72 11.35 22.49 10.69C21.26 10.03 19.73 9.7 17.9 9.7C15.32 9.7 13.34 10.18 11.96 11.14C10.61 12.07 9.935 13.39 9.935 15.1C9.935 16.24 10.28 17.215 10.97 18.025C11.69 18.835 12.575 19.51 13.625 20.05C14.675 20.59 16.145 21.235 18.035 21.985C20.315 22.915 22.145 23.755 23.525 24.505C24.905 25.255 26.075 26.275 27.035 27.565C28.025 28.855 28.52 30.445 28.52 32.335C28.52 35.875 27.17 38.605 24.47 40.525C21.8 42.415 18.215 43.36 13.715 43.36ZM57.9317 32.965C58.3217 32.965 58.6217 33.145 58.8317 33.505C59.0717 33.865 59.1917 34.36 59.1917 34.99C59.1917 36.19 58.9067 37.12 58.3367 37.78C56.9867 39.43 55.6217 40.75 54.2417 41.74C52.8617 42.73 51.2267 43.225 49.3367 43.225C47.0267 43.225 45.1667 42.565 43.7567 41.245C42.3467 39.925 41.6417 38.17 41.6417 35.98C41.6417 34.81 42.2417 33.97 43.4417 33.46C44.7617 32.89 45.7067 32.29 46.2767 31.66C46.8467 31 47.1317 30.205 47.1317 29.275C47.1317 28.735 47.0117 28.33 46.7717 28.06C46.5617 27.79 46.2917 27.655 45.9617 27.655C45.1517 27.655 44.2517 28.24 43.2617 29.41C42.3017 30.58 41.4017 32.095 40.5617 33.955C39.7217 35.785 39.0617 37.675 38.5817 39.625C38.2517 41.035 37.8617 41.995 37.4117 42.505C36.9917 42.985 36.3167 43.225 35.3867 43.225C34.4567 43.225 33.7667 42.895 33.3167 42.235C32.8967 41.545 32.6117 40.495 32.4617 39.085C32.3117 37.675 32.2367 35.605 32.2367 32.875C32.2367 28.255 32.7017 23.44 33.6317 18.43C34.5917 13.42 35.9867 9.22 37.8167 5.83C39.6767 2.41 41.8967 0.699997 44.4767 0.699997C45.8567 0.699997 46.9667 1.3 47.8067 2.5C48.6767 3.67 49.1117 5.2 49.1117 7.09C49.1117 10.12 48.2267 13.27 46.4567 16.54C44.6867 19.78 41.8067 23.575 37.8167 27.925C37.7267 29.485 37.6817 31.09 37.6817 32.74C39.1217 28.99 40.7717 26.275 42.6317 24.595C44.4917 22.885 46.2317 22.03 47.8517 22.03C49.3517 22.03 50.5517 22.54 51.4517 23.56C52.3817 24.58 52.8467 25.84 52.8467 27.34C52.8467 28.99 52.4267 30.505 51.5867 31.885C50.7467 33.265 49.3067 34.495 47.2667 35.575C47.3867 36.385 47.7467 37.045 48.3467 37.555C48.9767 38.035 49.7267 38.275 50.5967 38.275C51.5267 38.275 52.4267 37.915 53.2967 37.195C54.1667 36.475 55.3067 35.275 56.7167 33.595C57.0767 33.175 57.4817 32.965 57.9317 32.965ZM43.5317 5.155C42.9917 5.155 42.3917 5.935 41.7317 7.495C41.0717 9.025 40.4267 11.11 39.7967 13.75C39.1967 16.36 38.7017 19.21 38.3117 22.3C40.1717 20.11 41.7017 17.725 42.9017 15.145C44.1317 12.565 44.7467 10.225 44.7467 8.125C44.7467 7.165 44.6417 6.43 44.4317 5.92C44.2217 5.41 43.9217 5.155 43.5317 5.155ZM61.4593 19.06C60.1993 19.06 59.2543 18.775 58.6243 18.205C57.9943 17.605 57.6793 16.78 57.6793 15.73C57.6793 14.68 58.0843 13.81 58.8943 13.12C59.7343 12.4 60.7693 12.04 61.9993 12.04C63.1093 12.04 64.0093 12.31 64.6993 12.85C65.3893 13.39 65.7343 14.155 65.7343 15.145C65.7343 16.345 65.3443 17.305 64.5643 18.025C63.7843 18.715 62.7493 19.06 61.4593 19.06ZM61.0993 43.225C59.1493 43.225 57.7243 42.535 56.8243 41.155C55.9543 39.775 55.5193 37.945 55.5193 35.665C55.5193 34.315 55.6843 32.59 56.0143 30.49C56.3743 28.36 56.8243 26.38 57.3643 24.55C57.6343 23.59 57.9943 22.93 58.4443 22.57C58.8943 22.21 59.6143 22.03 60.6043 22.03C62.1343 22.03 62.8993 22.54 62.8993 23.56C62.8993 24.31 62.6143 26.05 62.0443 28.78C61.3243 32.08 60.9643 34.315 60.9643 35.485C60.9643 36.385 61.0843 37.075 61.3243 37.555C61.5643 38.035 61.9693 38.275 62.5393 38.275C63.0793 38.275 63.7543 37.9 64.5643 37.15C65.3743 36.4 66.4543 35.215 67.8043 33.595C68.1643 33.175 68.5693 32.965 69.0193 32.965C69.4093 32.965 69.7093 33.145 69.9193 33.505C70.1593 33.865 70.2793 34.36 70.2793 34.99C70.2793 36.19 69.9943 37.12 69.4243 37.78C66.4543 41.41 63.6793 43.225 61.0993 43.225ZM83.6935 32.965C84.0835 32.965 84.3835 33.145 84.5935 33.505C84.8335 33.865 84.9535 34.36 84.9535 34.99C84.9535 36.19 84.6685 37.12 84.0985 37.78C82.8085 39.37 81.3985 40.675 79.8685 41.695C78.3685 42.715 76.6585 43.225 74.7385 43.225C72.0985 43.225 70.1335 42.025 68.8435 39.625C67.5835 37.225 66.9535 34.12 66.9535 30.31C66.9535 26.65 67.4185 22.48 68.3485 17.8C69.3085 13.12 70.7035 9.1 72.5335 5.74C74.3935 2.38 76.5985 0.699997 79.1485 0.699997C80.5885 0.699997 81.7135 1.375 82.5235 2.725C83.3635 4.045 83.7835 5.95 83.7835 8.44C83.7835 12.01 82.7935 16.15 80.8135 20.86C78.8335 25.57 76.1485 30.235 72.7585 34.855C72.9685 36.085 73.3135 36.97 73.7935 37.51C74.2735 38.02 74.9035 38.275 75.6835 38.275C76.9135 38.275 77.9935 37.93 78.9235 37.24C79.8535 36.52 81.0385 35.305 82.4785 33.595C82.8385 33.175 83.2435 32.965 83.6935 32.965ZM78.1585 5.155C77.4685 5.155 76.6885 6.4 75.8185 8.89C74.9485 11.38 74.1835 14.47 73.5235 18.16C72.8635 21.85 72.5035 25.39 72.4435 28.78C74.5735 25.27 76.2685 21.76 77.5285 18.25C78.7885 14.71 79.4185 11.485 79.4185 8.575C79.4185 6.295 78.9985 5.155 78.1585 5.155ZM98.3713 32.965C98.7613 32.965 99.0613 33.145 99.2713 33.505C99.5113 33.865 99.6313 34.36 99.6313 34.99C99.6313 36.19 99.3463 37.12 98.7763 37.78C97.4863 39.37 96.0763 40.675 94.5463 41.695C93.0463 42.715 91.3363 43.225 89.4163 43.225C86.7763 43.225 84.8113 42.025 83.5213 39.625C82.2613 37.225 81.6313 34.12 81.6313 30.31C81.6313 26.65 82.0963 22.48 83.0263 17.8C83.9863 13.12 85.3813 9.1 87.2113 5.74C89.0713 2.38 91.2763 0.699997 93.8263 0.699997C95.2663 0.699997 96.3913 1.375 97.2013 2.725C98.0413 4.045 98.4613 5.95 98.4613 8.44C98.4613 12.01 97.4713 16.15 95.4913 20.86C93.5113 25.57 90.8263 30.235 87.4363 34.855C87.6463 36.085 87.9913 36.97 88.4713 37.51C88.9513 38.02 89.5813 38.275 90.3613 38.275C91.5913 38.275 92.6713 37.93 93.6013 37.24C94.5313 36.52 95.7163 35.305 97.1563 33.595C97.5163 33.175 97.9213 32.965 98.3713 32.965ZM92.8363 5.155C92.1463 5.155 91.3663 6.4 90.4963 8.89C89.6263 11.38 88.8613 14.47 88.2013 18.16C87.5413 21.85 87.1813 25.39 87.1213 28.78C89.2513 25.27 90.9463 21.76 92.2063 18.25C93.4663 14.71 94.0963 11.485 94.0963 8.575C94.0963 6.295 93.6763 5.155 92.8363 5.155ZM101.09 43.225C99.2295 43.225 97.7445 42.55 96.6345 41.2C95.5245 39.85 94.9695 38.08 94.9695 35.89C94.9695 33.49 95.5245 31.225 96.6345 29.095C97.7445 26.935 99.2145 25.21 101.045 23.92C102.905 22.6 104.87 21.94 106.94 21.94C107.6 21.94 108.035 22.075 108.245 22.345C108.485 22.585 108.68 23.035 108.83 23.695C109.46 23.575 110.12 23.515 110.81 23.515C112.28 23.515 113.015 24.04 113.015 25.09C113.015 25.72 112.79 27.22 112.34 29.59C111.65 33.04 111.305 35.44 111.305 36.79C111.305 37.24 111.41 37.6 111.62 37.87C111.86 38.14 112.16 38.275 112.52 38.275C113.09 38.275 113.78 37.915 114.59 37.195C115.4 36.445 116.495 35.245 117.875 33.595C118.235 33.175 118.64 32.965 119.09 32.965C119.48 32.965 119.78 33.145 119.99 33.505C120.23 33.865 120.35 34.36 120.35 34.99C120.35 36.19 120.065 37.12 119.495 37.78C118.265 39.31 116.96 40.6 115.58 41.65C114.2 42.7 112.865 43.225 111.575 43.225C110.585 43.225 109.67 42.895 108.83 42.235C108.02 41.545 107.405 40.615 106.985 39.445C105.425 41.965 103.46 43.225 101.09 43.225ZM102.71 38.68C103.37 38.68 104 38.29 104.6 37.51C105.2 36.73 105.635 35.695 105.905 34.405L107.57 26.125C106.31 26.155 105.14 26.635 104.06 27.565C103.01 28.465 102.17 29.665 101.54 31.165C100.91 32.665 100.595 34.255 100.595 35.935C100.595 36.865 100.775 37.555 101.135 38.005C101.525 38.455 102.05 38.68 102.71 38.68ZM125.287 43.225C122.347 43.225 120.052 42.4 118.402 40.75C116.782 39.07 115.972 36.865 115.972 34.135C115.972 31.705 116.452 29.575 117.412 27.745C118.372 25.915 119.617 24.505 121.147 23.515C122.677 22.525 124.282 22.03 125.962 22.03C127.612 22.03 128.887 22.525 129.787 23.515C130.717 24.475 131.182 25.72 131.182 27.25C131.182 28.51 130.897 29.575 130.327 30.445C129.787 31.315 129.067 31.75 128.167 31.75C127.597 31.75 127.132 31.615 126.772 31.345C126.442 31.075 126.277 30.7 126.277 30.22C126.277 30.01 126.307 29.77 126.367 29.5C126.427 29.23 126.472 29.035 126.502 28.915C126.652 28.465 126.727 28.045 126.727 27.655C126.727 27.265 126.622 26.965 126.412 26.755C126.232 26.545 125.962 26.44 125.602 26.44C124.912 26.44 124.267 26.755 123.667 27.385C123.067 27.985 122.587 28.81 122.227 29.86C121.867 30.91 121.687 32.065 121.687 33.325C121.687 36.805 123.202 38.545 126.232 38.545C127.462 38.545 128.782 38.14 130.192 37.33C131.632 36.49 133.042 35.245 134.422 33.595C134.782 33.175 135.187 32.965 135.637 32.965C136.027 32.965 136.327 33.145 136.537 33.505C136.777 33.865 136.897 34.36 136.897 34.99C136.897 36.13 136.612 37.06 136.042 37.78C134.632 39.52 132.937 40.87 130.957 41.83C129.007 42.76 127.117 43.225 125.287 43.225ZM138.355 43.225C136.495 43.225 135.01 42.55 133.9 41.2C132.79 39.85 132.235 38.08 132.235 35.89C132.235 33.49 132.79 31.225 133.9 29.095C135.01 26.935 136.48 25.21 138.31 23.92C140.17 22.6 142.135 21.94 144.205 21.94C144.865 21.94 145.3 22.075 145.51 22.345C145.75 22.585 145.945 23.035 146.095 23.695C146.725 23.575 147.385 23.515 148.075 23.515C149.545 23.515 150.28 24.04 150.28 25.09C150.28 25.72 150.055 27.22 149.605 29.59C148.915 33.04 148.57 35.44 148.57 36.79C148.57 37.24 148.675 37.6 148.885 37.87C149.125 38.14 149.425 38.275 149.785 38.275C150.355 38.275 151.045 37.915 151.855 37.195C152.665 36.445 153.76 35.245 155.14 33.595C155.5 33.175 155.905 32.965 156.355 32.965C156.745 32.965 157.045 33.145 157.255 33.505C157.495 33.865 157.615 34.36 157.615 34.99C157.615 36.19 157.33 37.12 156.76 37.78C155.53 39.31 154.225 40.6 152.845 41.65C151.465 42.7 150.13 43.225 148.84 43.225C147.85 43.225 146.935 42.895 146.095 42.235C145.285 41.545 144.67 40.615 144.25 39.445C142.69 41.965 140.725 43.225 138.355 43.225ZM139.975 38.68C140.635 38.68 141.265 38.29 141.865 37.51C142.465 36.73 142.9 35.695 143.17 34.405L144.835 26.125C143.575 26.155 142.405 26.635 141.325 27.565C140.275 28.465 139.435 29.665 138.805 31.165C138.175 32.665 137.86 34.255 137.86 35.935C137.86 36.865 138.04 37.555 138.4 38.005C138.79 38.455 139.315 38.68 139.975 38.68ZM172.138 28.195C172.798 28.195 173.353 28.435 173.803 28.915C174.283 29.365 174.523 29.935 174.523 30.625C174.523 31.015 174.433 31.435 174.253 31.885C173.773 32.995 173.098 33.925 172.228 34.675C171.358 35.425 170.398 35.8 169.348 35.8C168.508 35.8 167.788 35.5 167.188 34.9C166.618 34.3 166.333 33.49 166.333 32.47C166.333 31.9 166.363 31.285 166.423 30.625C166.483 30.145 166.513 29.815 166.513 29.635C166.513 29.395 166.453 29.215 166.333 29.095C166.243 28.975 166.123 28.915 165.973 28.915C165.553 28.915 164.983 29.425 164.263 30.445C163.543 31.435 162.823 32.755 162.103 34.405C161.383 36.055 160.798 37.795 160.348 39.625C160.018 41.065 159.643 42.025 159.223 42.505C158.803 42.985 158.113 43.225 157.153 43.225C156.013 43.225 155.203 42.625 154.723 41.425C154.273 40.225 154.048 38.305 154.048 35.665C154.048 31.765 154.603 28.06 155.713 24.55C155.983 23.68 156.418 23.05 157.018 22.66C157.648 22.24 158.518 22.03 159.628 22.03C160.228 22.03 160.648 22.105 160.888 22.255C161.128 22.405 161.248 22.69 161.248 23.11C161.248 23.59 161.023 24.67 160.573 26.35C160.273 27.55 160.033 28.6 159.853 29.5C159.673 30.4 159.523 31.51 159.403 32.83C160.393 30.25 161.503 28.15 162.733 26.53C163.963 24.91 165.163 23.755 166.333 23.065C167.503 22.375 168.568 22.03 169.528 22.03C170.398 22.03 171.058 22.285 171.508 22.795C171.988 23.275 172.228 23.995 172.228 24.955C172.228 25.525 172.063 26.605 171.733 28.195H172.138ZM183.663 26.305C183.603 27.805 183.573 28.975 183.573 29.815C183.573 31.975 183.678 33.67 183.888 34.9C184.128 36.1 184.503 36.97 185.013 37.51C185.553 38.02 186.288 38.275 187.218 38.275C187.698 38.275 188.268 38.125 188.928 37.825C189.588 37.525 190.188 37.135 190.728 36.655C191.058 36.355 191.388 36.205 191.718 36.205C192.078 36.205 192.363 36.415 192.573 36.835C192.813 37.225 192.933 37.705 192.933 38.275C192.933 38.845 192.813 39.4 192.573 39.94C192.363 40.48 192.033 40.93 191.583 41.29C190.023 42.58 188.253 43.225 186.273 43.225C183.423 43.225 181.338 42.04 180.018 39.67C178.698 37.27 178.038 34.15 178.038 30.31C178.038 28.99 178.083 27.655 178.173 26.305H176.418C175.518 26.305 174.903 26.14 174.573 25.81C174.273 25.48 174.123 24.955 174.123 24.235C174.123 22.555 174.798 21.715 176.148 21.715H178.713C179.223 18.415 180.003 15.4 181.053 12.67C182.103 9.94 183.363 7.765 184.833 6.145C186.333 4.525 187.938 3.715 189.648 3.715C190.908 3.715 191.898 4.27 192.618 5.38C193.338 6.49 193.698 7.885 193.698 9.565C193.698 14.215 191.748 18.265 187.848 21.715H192.888C193.368 21.715 193.713 21.82 193.923 22.03C194.133 22.24 194.238 22.63 194.238 23.2C194.238 25.27 192.543 26.305 189.153 26.305H183.663ZM188.433 8.035C187.983 8.035 187.473 8.605 186.903 9.745C186.363 10.855 185.838 12.415 185.328 14.425C184.848 16.405 184.443 18.61 184.113 21.04C185.883 19.51 187.203 17.8 188.073 15.91C188.973 13.99 189.423 12.25 189.423 10.69C189.423 8.92 189.093 8.035 188.433 8.035Z" fill="white"/>
</svg>
